# This file uses centimeters as units for non-parametric coordinates.

v -0.041046 0.023607 -0.042662
v 0.710413 0.023608 -0.042662
v 0.710413 0.023608 -0.000623
v -0.041046 0.023607 -0.000623
v -0.041044 1.052020 -0.042662
v -0.041044 1.052020 -0.000623
v 0.710411 1.052020 -0.042662
v 0.710411 1.052020 -0.000623
v 0.681819 0.049724 -0.000623
v -0.010820 0.049725 -0.000623
v -0.010820 1.021811 -0.000623
v 0.681821 1.021811 -0.000623
v 0.681787 0.049716 -0.041328
v -0.010853 0.049716 -0.041328
v -0.010853 1.021811 -0.041328
v 0.681788 1.021811 -0.041328
v -0.041046 0.001208 -0.042662
v 0.710413 0.001209 -0.042662
v 0.710413 0.023608 0.020876
v -0.041046 0.023607 0.020876
v -0.041046 0.001208 0.020876
v 0.710413 0.001209 0.020876
vt -0.000000 0.000000
vt 1.000000 0.000001
vt 1.000000 0.000001
vt -0.000000 0.000000
vt 0.000003 1.000000
vt -0.000000 0.021316
vt -0.000000 0.021316
vt 0.000003 1.000000
vt 0.999998 1.000000
vt 0.999998 1.000000
vt 1.000000 0.021317
vt 1.000000 0.021317
vt 0.961950 0.046170
vt 0.040223 0.046171
vt 0.040223 0.971252
vt 0.961951 0.971252
vt 0.961907 0.046162
vt 0.040180 0.046163
vt 0.040180 0.971251
vt 0.961907 0.971251
vt 1.000000 0.021317
vt -0.000000 0.021316
vn 0.000001 -1.000000 0.000000
vn 0.000001 -1.000000 0.000000
vn 0.000001 -1.000000 0.000000
vn 0.000001 -1.000000 0.000000
vn -1.000000 0.000002 0.000000
vn -1.000000 0.000002 0.000000
vn -1.000000 0.000002 0.000000
vn -1.000000 0.000002 0.000000
vn 0.000000 1.000000 0.000000
vn 0.000000 1.000000 0.000000
vn 0.000000 1.000000 0.000000
vn 0.000000 1.000000 0.000000
vn 1.000000 0.000001 0.000000
vn 1.000000 0.000001 0.000000
vn 1.000000 0.000001 0.000000
vn 1.000000 0.000001 0.000000
vn 0.000000 0.000000 1.000000
vn 0.000000 0.000000 1.000000
vn 0.000000 0.000000 1.000000
vn 0.000000 0.000000 1.000000
vn -0.000000 0.000000 1.000000
vn -0.000000 0.000000 1.000000
vn -0.000000 0.000000 1.000000
vn -0.000000 0.000000 1.000000
vn 0.000000 0.000000 1.000000
vn 0.000000 0.000000 1.000000
vn 0.000000 0.000000 1.000000
vn 0.000000 0.000000 1.000000
vn -0.000000 0.000000 1.000000
vn -0.000000 0.000000 1.000000
vn -0.000000 0.000000 1.000000
vn -0.000000 0.000000 1.000000
vn 0.000001 1.000000 -0.000204
vn 0.000001 1.000000 -0.000204
vn 0.000001 1.000000 -0.000204
vn 0.000001 1.000000 -0.000204
vn 1.000000 0.000000 -0.000800
vn 1.000000 0.000000 -0.000800
vn 1.000000 0.000000 -0.000800
vn 1.000000 0.000000 -0.000800
vn 0.000000 -1.000000 0.000007
vn 0.000000 -1.000000 0.000007
vn 0.000000 -1.000000 0.000007
vn 0.000000 -1.000000 0.000007
vn -1.000000 0.000001 0.000804
vn -1.000000 0.000001 0.000804
vn -1.000000 0.000001 0.000804
vn -1.000000 0.000001 0.000804
vn 0.000000 0.000000 1.000000
vn 0.000000 0.000000 1.000000
vn 0.000000 0.000000 1.000000
vn 0.000000 0.000000 1.000000
vn 1.000000 0.000005 0.000000
vn 1.000000 0.000005 0.000000
vn 1.000000 0.000005 0.000000
vn 1.000000 0.000005 0.000000
vn 1.000000 0.000005 0.000000
vn 0.000000 0.000000 1.000000
vn 0.000000 0.000000 1.000000
vn 0.000000 0.000000 1.000000
vn 0.000000 0.000000 1.000000
vn -0.000001 1.000000 0.000000
vn -0.000001 1.000000 0.000000
vn -0.000001 1.000000 0.000000
vn -0.000001 1.000000 0.000000
vn -1.000000 0.000000 0.000000
vn -1.000000 0.000000 0.000000
vn -1.000000 0.000000 0.000000
vn -1.000000 0.000000 0.000000
vn -1.000000 0.000000 0.000000
g polySurface11
f 17/1/1 18/2/2 22/3/3 21/4/4
f 5/5/5 1/6/6 4/7/7 6/8/8
f 7/9/9 5/5/10 6/8/11 8/10/12
f 2/11/13 7/9/14 8/10/15 3/12/16
f 4/7/17 3/12/18 9/13/19 10/14/20
f 6/8/21 4/7/22 10/14/23 11/15/24
f 8/10/25 6/8/26 11/15/27 12/16/28
f 3/12/29 8/10/30 12/16/31 9/13/32
f 10/14/33 9/13/34 13/17/35 14/18/36
f 11/15/37 10/14/38 14/18/39 15/19/40
f 12/16/41 11/15/42 15/19/43 16/20/44
f 9/13/45 12/16/46 16/20/47 13/17/48
f 14/18/49 13/17/50 16/20/51 15/19/52
f 18/2/53 2/11/54 3/12/55 19/21/56 22/3/57
f 19/21/58 20/22/59 21/4/60 22/3/61
f 3/12/62 4/7/63 20/22/64 19/21/65
f 17/1/66 21/4/67 20/22/68 4/7/69 1/6/70
